<svg width="352" height="352" viewBox="0 0 512 521" fill="none" xmlns="http://www.w3.org/2000/svg">
<path fill-rule="evenodd" clip-rule="evenodd" d="M0.372872 360.53C0.381273 370.901 9.11225 379.256 19.7214 379.083L125.682 377.353C182.81 382.877 165.863 406.979 148.219 435.3C105.574 503.766 217.927 546.959 252.516 491.62C279.662 448.191 232.914 430.335 237.71 398.767C239.586 386.573 253.038 377.898 273.508 374.898L350.052 373.649C360.705 373.475 369.379 364.836 369.37 354.464L369.3 267.785C378.536 196.074 419.139 258.932 456.885 258.316C487.178 257.863 511.706 230.68 511.68 197.649C511.653 164.66 487.078 134.779 456.785 135.274C421.188 135.855 378.541 202.28 369.188 129.873L369.1 21.2006C369.092 10.8291 360.405 2.47364 349.752 2.64756L273.383 3.89429C240.815 9.96587 233.292 31.5818 254.796 58.7636C262.081 67.9333 270.554 83.4566 270.563 94.7862C270.587 124.318 243.207 148.757 209.407 149.309C175.607 149.861 140.735 126.479 140.711 96.906C140.702 86.3679 144.201 76.4806 150.288 68.0506C147.702 68.0928 197.812 15.6246 136.429 6.13012L19.3332 8.04173C8.6802 8.21564 0.00685993 16.8545 0.0152608 27.226C0.0623936 85.4149 0.109459 143.521 0.200406 201.667C11.3813 203.775 24.1764 196.111 35.2622 188.932C122.59 132.441 131.487 346.518 32.6284 293.066C27.76 290.439 23.0232 287.808 18.4183 285.801C12.6732 283.27 5.6575 281.636 0.265555 282.099L0.372872 360.53Z" fill="#023047" fill-opacity="0.33"/>
</svg>
